<svg width="475" height="476" viewBox="0 0 475 476" fill="none" xmlns="http://www.w3.org/2000/svg">
<path d="M237.297 475.395C368.342 475.395 474.576 369.161 474.576 238.116C474.576 107.07 368.342 0.836914 237.297 0.836914C106.251 0.836914 0.0180664 107.07 0.0180664 238.116C0.0180664 369.161 106.251 475.395 237.297 475.395Z" fill="black"/>
<path d="M154.573 44.2909C154.573 44.2909 209.272 10.104 310.049 37.4536L152.789 191.146L154.573 44.2909ZM41.7473 159.556C41.7473 159.556 56.2516 96.7038 146.851 44.7827L144.328 264.659L41.7473 159.556ZM43.4721 320.84C43.4721 320.84 9.28518 266.141 36.6347 165.364L190.327 322.624L43.4721 320.84ZM158.737 433.665C158.737 433.665 95.8849 419.161 43.9638 328.562L263.84 331.084L158.737 433.665ZM320.021 431.941C320.021 431.941 265.322 466.128 164.545 438.778L321.805 285.086L320.021 431.941ZM432.847 316.676C432.847 316.676 418.342 379.528 327.743 431.449L330.266 211.572L432.847 316.676ZM431.122 155.392C431.122 155.392 465.309 210.091 437.959 310.868L284.267 153.608L431.122 155.392ZM315.857 42.5662C315.857 42.5662 378.709 57.0705 430.63 147.67L210.754 145.147L315.857 42.5662Z" fill="#FF0000"/>
</svg>
