<svg width="24" height="24" viewBox="0 0 24 24" fill="none" xmlns="http://www.w3.org/2000/svg">
<path d="M17.148 9.99995C17.4132 9.99995 17.6675 9.89459 17.8551 9.70706C18.0426 9.51952 18.148 9.26517 18.148 8.99995C18.148 8.73473 18.0426 8.48038 17.8551 8.29284C17.6675 8.10531 17.4132 7.99995 17.148 7.99995C16.8827 7.99995 16.6284 8.10531 16.4408 8.29284C16.2533 8.48038 16.148 8.73473 16.148 8.99995C16.148 9.26517 16.2533 9.51952 16.4408 9.70706C16.6284 9.89459 16.8827 9.99995 17.148 9.99995ZM17.148 16C17.4132 16 17.6675 15.8946 17.8551 15.7071C18.0426 15.5195 18.148 15.2652 18.148 15C18.148 14.7347 18.0426 14.4804 17.8551 14.2928C17.6675 14.1053 17.4132 14 17.148 14C16.8827 14 16.6284 14.1053 16.4408 14.2928C16.2533 14.4804 16.148 14.7347 16.148 15C16.148 15.2652 16.2533 15.5195 16.4408 15.7071C16.6284 15.8946 16.8827 16 17.148 16ZM19.75 13C20.0152 13 20.2695 12.8946 20.4571 12.7071C20.6446 12.5195 20.75 12.2652 20.75 12C20.75 11.7347 20.6446 11.4804 20.4571 11.2928C20.2695 11.1053 20.0152 11 19.75 11C19.4847 11 19.2304 11.1053 19.0428 11.2928C18.8553 11.4804 18.75 11.7347 18.75 12C18.75 12.2652 18.8553 12.5195 19.0428 12.7071C19.2304 12.8946 19.4847 13 19.75 13ZM6.79895 9.99995C7.06417 9.99995 7.31852 9.89459 7.50606 9.70706C7.69359 9.51952 7.79895 9.26517 7.79895 8.99995C7.79895 8.73473 7.69359 8.48038 7.50606 8.29284C7.31852 8.10531 7.06417 7.99995 6.79895 7.99995C6.53373 7.99995 6.27938 8.10531 6.09184 8.29284C5.90431 8.48038 5.79895 8.73473 5.79895 8.99995C5.79895 9.26517 5.90431 9.51952 6.09184 9.70706C6.27938 9.89459 6.53373 9.99995 6.79895 9.99995ZM6.79895 16C7.06417 16 7.31852 15.8946 7.50606 15.7071C7.69359 15.5195 7.79895 15.2652 7.79895 15C7.79895 14.7347 7.69359 14.4804 7.50606 14.2928C7.31852 14.1053 7.06417 14 6.79895 14C6.53373 14 6.27938 14.1053 6.09184 14.2928C5.90431 14.4804 5.79895 14.7347 5.79895 15C5.79895 15.2652 5.90431 15.5195 6.09184 15.7071C6.27938 15.8946 6.53373 16 6.79895 16ZM4.19995 13C4.46517 13 4.71952 12.8946 4.90706 12.7071C5.09459 12.5195 5.19995 12.2652 5.19995 12C5.19995 11.7347 5.09459 11.4804 4.90706 11.2928C4.71952 11.1053 4.46517 11 4.19995 11C3.93473 11 3.68038 11.1053 3.49284 11.2928C3.30531 11.4804 3.19995 11.7347 3.19995 12C3.19995 12.2652 3.30531 12.5195 3.49284 12.7071C3.68038 12.8946 3.93473 13 4.19995 13ZM15.898 6.19995C16.1632 6.19995 16.4175 6.09459 16.6051 5.90706C16.7926 5.71952 16.898 5.46517 16.898 5.19995C16.898 4.93473 16.7926 4.68038 16.6051 4.49284C16.4175 4.30531 16.1632 4.19995 15.898 4.19995C15.6327 4.19995 15.3784 4.30531 15.1908 4.49284C15.0033 4.68038 14.898 4.93473 14.898 5.19995C14.898 5.46517 15.0033 5.71952 15.1908 5.90706C15.3784 6.09459 15.6327 6.19995 15.898 6.19995ZM8.09995 6.19995C8.36517 6.19995 8.61952 6.09459 8.80706 5.90706C8.99459 5.71952 9.09995 5.46517 9.09995 5.19995C9.09995 4.93473 8.99459 4.68038 8.80706 4.49284C8.61952 4.30531 8.36517 4.19995 8.09995 4.19995C7.83474 4.19995 7.58038 4.30531 7.39284 4.49284C7.20531 4.68038 7.09995 4.93473 7.09995 5.19995C7.09995 5.46517 7.20531 5.71952 7.39284 5.90706C7.58038 6.09459 7.83474 6.19995 8.09995 6.19995ZM12.049 6.99995C12.3142 6.99995 12.5685 6.89459 12.7561 6.70706C12.9436 6.51952 13.049 6.26517 13.049 5.99995C13.049 5.73473 12.9436 5.48038 12.7561 5.29284C12.5685 5.10531 12.3142 4.99995 12.049 4.99995C11.7837 4.99995 11.5294 5.10531 11.3418 5.29284C11.1543 5.48038 11.049 5.73473 11.049 5.99995C11.049 6.26517 11.1543 6.51952 11.3418 6.70706C11.5294 6.89459 11.7837 6.99995 12.049 6.99995ZM15.898 20C16.1632 20 16.4175 19.8946 16.6051 19.7071C16.7926 19.5195 16.898 19.2652 16.898 19C16.898 18.7347 16.7926 18.4804 16.6051 18.2928C16.4175 18.1053 16.1632 18 15.898 18C15.6327 18 15.3784 18.1053 15.1908 18.2928C15.0033 18.4804 14.898 18.7347 14.898 19C14.898 19.2652 15.0033 19.5195 15.1908 19.7071C15.3784 19.8946 15.6327 20 15.898 20ZM8.09995 20C8.36517 20 8.61952 19.8946 8.80706 19.7071C8.99459 19.5195 9.09995 19.2652 9.09995 19C9.09995 18.7347 8.99459 18.4804 8.80706 18.2928C8.61952 18.1053 8.36517 18 8.09995 18C7.83474 18 7.58038 18.1053 7.39284 18.2928C7.20531 18.4804 7.09995 18.7347 7.09995 19C7.09995 19.2652 7.20531 19.5195 7.39284 19.7071C7.58038 19.8946 7.83474 20 8.09995 20ZM12.049 19.2C12.3142 19.2 12.5685 19.0946 12.7561 18.9071C12.9436 18.7195 13.049 18.4652 13.049 18.2C13.049 17.9347 12.9436 17.6804 12.7561 17.4928C12.5685 17.3053 12.3142 17.2 12.049 17.2C11.7837 17.2 11.5294 17.3053 11.3418 17.4928C11.1543 17.6804 11.049 17.9347 11.049 18.2C11.049 18.4652 11.1543 18.7195 11.3418 18.9071C11.5294 19.0946 11.7837 19.2 12.049 19.2ZM13.75 10.25C14.0815 10.25 14.3994 10.1183 14.6338 9.88383C14.8683 9.64941 15 9.33147 15 8.99995C15 8.66843 14.8683 8.35049 14.6338 8.11607C14.3994 7.88165 14.0815 7.74995 13.75 7.74995C13.4184 7.74995 13.1005 7.88165 12.8661 8.11607C12.6316 8.35049 12.5 8.66843 12.5 8.99995C12.5 9.33147 12.6316 9.64941 12.8661 9.88383C13.1005 10.1183 13.4184 10.25 13.75 10.25ZM10.25 10.25C10.5815 10.25 10.8994 10.1183 11.1338 9.88383C11.3683 9.64941 11.5 9.33147 11.5 8.99995C11.5 8.66843 11.3683 8.35049 11.1338 8.11607C10.8994 7.88165 10.5815 7.74995 10.25 7.74995C9.91843 7.74995 9.60049 7.88165 9.36607 8.11607C9.13165 8.35049 8.99995 8.66843 8.99995 8.99995C8.99995 9.33147 9.13165 9.64941 9.36607 9.88383C9.60049 10.1183 9.91843 10.25 10.25 10.25ZM15.5 13.25C15.8315 13.25 16.1494 13.1183 16.3838 12.8838C16.6183 12.6494 16.75 12.3315 16.75 12C16.75 11.6684 16.6183 11.3505 16.3838 11.1161C16.1494 10.8816 15.8315 10.75 15.5 10.75C15.1684 10.75 14.8505 10.8816 14.6161 11.1161C14.3816 11.3505 14.25 11.6684 14.25 12C14.25 12.3315 14.3816 12.6494 14.6161 12.8838C14.8505 13.1183 15.1684 13.25 15.5 13.25ZM8.49995 13.25C8.83147 13.25 9.14941 13.1183 9.38383 12.8838C9.61826 12.6494 9.74995 12.3315 9.74995 12C9.74995 11.6684 9.61826 11.3505 9.38383 11.1161C9.14941 10.8816 8.83147 10.75 8.49995 10.75C8.16843 10.75 7.85049 10.8816 7.61607 11.1161C7.38165 11.3505 7.24995 11.6684 7.24995 12C7.24995 12.3315 7.38165 12.6494 7.61607 12.8838C7.85049 13.1183 8.16843 13.25 8.49995 13.25ZM10.25 16.25C10.5815 16.25 10.8994 16.1183 11.1338 15.8838C11.3683 15.6494 11.5 15.3315 11.5 15C11.5 14.6684 11.3683 14.3505 11.1338 14.1161C10.8994 13.8816 10.5815 13.75 10.25 13.75C9.91843 13.75 9.60049 13.8816 9.36607 14.1161C9.13165 14.3505 8.99995 14.6684 8.99995 15C8.99995 15.3315 9.13165 15.6494 9.36607 15.8838C9.60049 16.1183 9.91843 16.25 10.25 16.25ZM13.75 16.25C14.0815 16.25 14.3994 16.1183 14.6338 15.8838C14.8683 15.6494 15 15.3315 15 15C15 14.6684 14.8683 14.3505 14.6338 14.1161C14.3994 13.8816 14.0815 13.75 13.75 13.75C13.4184 13.75 13.1005 13.8816 12.8661 14.1161C12.6316 14.3505 12.5 14.6684 12.5 15C12.5 15.3315 12.6316 15.6494 12.8661 15.8838C13.1005 16.1183 13.4184 16.25 13.75 16.25Z" fill="#FF2426"/>
<path d="M12 3.33007C11.51 3.33007 11.12 2.94007 11.12 2.45007C11.12 1.96007 11.51 1.57007 12 1.57007C12.49 1.57007 12.88 1.96007 12.88 2.45007C12.88 2.94007 12.49 3.33007 12 3.33007Z" fill="#FF2426"/>
<path d="M17.25 3.60205C16.83 3.60205 16.49 3.26205 16.49 2.85205C16.49 2.44205 16.83 2.10205 17.24 2.10205C17.65 2.10205 18 2.44205 18 2.85205C18 3.26205 17.67 3.60205 17.25 3.60205Z" fill="#FF2426"/>
<path d="M6.75 3.60205C6.55109 3.60205 6.36032 3.52303 6.21967 3.38238C6.07902 3.24173 6 3.05096 6 2.85205C6 2.65314 6.07902 2.46237 6.21967 2.32172C6.36032 2.18107 6.55109 2.10205 6.75 2.10205H6.76C7.17 2.10205 7.51 2.44205 7.51 2.85205C7.51 3.26205 7.17 3.60205 6.75 3.60205Z" fill="#FF2426"/>
<path d="M12 22.3811C11.51 22.3811 11.12 21.9911 11.12 21.5011C11.12 21.0111 11.51 20.6211 12 20.6211C12.49 20.6211 12.88 21.0111 12.88 21.5011C12.88 21.9911 12.49 22.3811 12 22.3811Z" fill="#FF2426"/>
<path d="M17.25 21.8521C16.83 21.8521 16.49 21.5121 16.49 21.1021C16.49 20.6921 16.83 20.3521 17.24 20.3521C17.65 20.3521 18 20.6921 18 21.1021C18 21.5121 17.67 21.8521 17.25 21.8521Z" fill="#FF2426"/>
<path d="M6.75 21.8521C6.55109 21.8521 6.36032 21.773 6.21967 21.6324C6.07902 21.4917 6 21.301 6 21.1021C6 20.9031 6.07902 20.7124 6.21967 20.5717C6.36032 20.4311 6.55109 20.3521 6.75 20.3521H6.76C7.17 20.3521 7.51 20.6921 7.51 21.1021C7.51 21.5121 7.17 21.8521 6.75 21.8521Z" fill="#FF2426"/>
<path d="M1.55004 12.8811C1.31838 12.8811 1.09605 12.7898 0.931299 12.6269C0.766551 12.464 0.672677 12.2427 0.670044 12.0111V12.0011C0.670044 11.5211 1.06004 11.1211 1.55004 11.1211C2.04004 11.1211 2.43004 11.5111 2.43004 12.0011C2.43004 12.4911 2.03004 12.8811 1.55004 12.8811Z" fill="#FF2426"/>
<path d="M3.75 17.748C3.34 17.748 3 17.418 3 16.998V16.988C3 16.578 3.34 16.238 3.75 16.238C4.16 16.238 4.5 16.578 4.5 16.988C4.5 17.398 4.16 17.748 3.75 17.748Z" fill="#FF2426"/>
<path d="M3.75 7.76196C3.34 7.76196 3 7.42196 3 7.01196C3 6.60196 3.34 6.26196 3.75 6.26196C4.16 6.26196 4.5 6.59196 4.5 7.00196V7.01196C4.5 7.42196 4.16 7.76196 3.75 7.76196Z" fill="#FF2426"/>
<path d="M22.5 12.8809C22.2683 12.8809 22.046 12.7896 21.8812 12.6267C21.7165 12.4638 21.6226 12.2426 21.62 12.0109V12.0009C21.6308 11.7748 21.7282 11.5615 21.8921 11.4052C22.0559 11.249 22.2736 11.1619 22.5 11.1619C22.7264 11.1619 22.9441 11.249 23.1079 11.4052C23.2718 11.5615 23.3692 11.7748 23.38 12.0009C23.38 12.4909 22.98 12.8809 22.5 12.8809Z" fill="#FF2426"/>
<path d="M20.3 17.748C19.89 17.748 19.55 17.418 19.55 16.998V16.988C19.55 16.578 19.89 16.238 20.3 16.238C20.71 16.238 21.05 16.578 21.05 16.988C21.05 17.398 20.71 17.748 20.3 17.748Z" fill="#FF2426"/>
<path d="M20.3 7.76196C19.89 7.76196 19.55 7.42196 19.55 7.01196C19.55 6.60196 19.89 6.26196 20.3 6.26196C20.71 6.26196 21.05 6.59196 21.05 7.01196V7.02196C21.05 7.42196 20.71 7.76196 20.3 7.76196Z" fill="#FF2426"/>
</svg>
