<svg width="24" height="24" viewBox="0 0 24 24" fill="none" xmlns="http://www.w3.org/2000/svg">
<path d="M21.04 13.2789L20.12 12.3789L12.37 20.1189L13.3 21.0489C14.08 21.8289 14.89 22.2189 15.69 22.2189C16.49 22.2189 17.3 21.8289 18.08 21.0489L21.04 18.0889C22.63 16.4889 22.63 14.8789 21.04 13.2789ZM10.69 2.93092C9.12001 1.36092 7.47001 1.36092 5.90001 2.93092L2.93001 5.89092C1.37001 7.46092 1.37001 9.11092 2.93001 10.6809L3.85001 11.6009L11.6 3.85092L10.69 2.93092ZM21.81 3.93792C20.5 7.20792 17.51 11.4779 14.66 14.2679C14.4574 13.0072 13.8555 11.8449 12.9428 10.952C12.0301 10.0591 10.8548 9.48278 9.59001 9.30792C12.39 6.44792 16.69 3.41792 19.97 2.09792C20.55 1.87792 21.13 2.04792 21.49 2.40792C21.87 2.78792 22.05 3.35792 21.81 3.93792Z" fill="#FF2426"/>
<path d="M13.78 15.09C13.58 15.26 13.38 15.43 13.18 15.59L11.39 17.02C11.39 16.99 11.38 16.95 11.38 16.91C11.24 15.84 10.74 14.85 9.93 14.04C9.13567 13.2342 8.09281 12.7198 6.97 12.58C6.94 12.58 6.9 12.57 6.87 12.57L8.31999 10.74C8.45999 10.56 8.61 10.39 8.77 10.21L9.45 10.3C11.6 10.6 13.33 12.29 13.67 14.43L13.78 15.09Z" fill="#FF2426"/>
<path d="M10.43 17.6201C10.43 18.7201 10.01 19.7701 9.21001 20.5601C8.60001 21.1801 7.78001 21.6001 6.78001 21.7201L4.33001 21.9901C2.99001 22.1401 1.84001 20.9901 1.99001 19.6401L2.26001 17.1801C2.50001 14.9901 4.33001 13.5901 6.27001 13.5501C6.46001 13.5401 6.67001 13.5501 6.87001 13.5701C7.72001 13.6801 8.54001 14.0701 9.23001 14.7501C9.90001 15.4201 10.28 16.2101 10.39 17.0401C10.41 17.2401 10.43 17.4301 10.43 17.6201Z" fill="#FF2426"/>
</svg>
