<svg width="24" height="24" viewBox="0 0 24 24" fill="none" xmlns="http://www.w3.org/2000/svg">
<path d="M22 22.75H5C2.93 22.75 1.25 21.07 1.25 19V2C1.25 1.59 1.59 1.25 2 1.25C2.41 1.25 2.75 1.59 2.75 2V19C2.75 20.24 3.76 21.25 5 21.25H22C22.41 21.25 22.75 21.59 22.75 22C22.75 22.41 22.41 22.75 22 22.75Z" fill="#FF2426"/>
<path d="M5.00003 17.7501C4.83003 17.7501 4.65003 17.6901 4.51003 17.5701C4.35986 17.4395 4.26724 17.2549 4.25227 17.0565C4.23729 16.8581 4.30116 16.6617 4.43003 16.5101L9.02003 11.1501C9.52003 10.5701 10.24 10.2201 11 10.1901C11.76 10.1701 12.51 10.4501 13.05 10.9901L14 11.9401C14.25 12.1901 14.57 12.3101 14.93 12.3101C15.28 12.3001 15.6 12.1401 15.83 11.8701L20.42 6.51007C20.69 6.20007 21.16 6.16007 21.48 6.43007C21.79 6.70007 21.83 7.17007 21.56 7.49007L16.97 12.8501C16.47 13.4301 15.75 13.7801 14.99 13.8101C14.6119 13.8233 14.235 13.7591 13.8825 13.6215C13.53 13.484 13.2093 13.2759 12.94 13.0101L12 12.0601C11.75 11.8101 11.42 11.6801 11.07 11.6901C10.72 11.7001 10.4 11.8601 10.17 12.1301L5.58003 17.4901C5.50625 17.5707 5.41671 17.6354 5.31696 17.6801C5.2172 17.7249 5.10934 17.7487 5.00003 17.7501Z" fill="#FF2426"/>
</svg>
