<svg width="24" height="24" viewBox="0 0 24 24" fill="none" xmlns="http://www.w3.org/2000/svg">
<path d="M19.1201 9.12011C18.7301 9.12011 18.4201 9.43011 18.4201 9.82011V11.4001C18.4201 14.9401 15.5401 17.8201 12.0001 17.8201C8.46005 17.8201 5.58005 14.9401 5.58005 11.4001V9.81011C5.58005 9.42011 5.27005 9.11011 4.88005 9.11011C4.49005 9.11011 4.18005 9.42011 4.18005 9.81011V11.3901C4.18005 15.4601 7.31005 18.8101 11.3001 19.1701V21.3001C11.3001 21.6901 11.6101 22.0001 12.0001 22.0001C12.3901 22.0001 12.7001 21.6901 12.7001 21.3001V19.1701C16.6801 18.8201 19.8201 15.4601 19.8201 11.3901V9.81011C19.8157 9.62677 19.7402 9.45231 19.6096 9.32357C19.479 9.19482 19.3034 9.12187 19.1201 9.12011Z" fill="#FF2426"/>
<path d="M11.998 2C9.558 2 7.578 3.98 7.578 6.42V11.54C7.578 13.98 9.558 15.96 11.998 15.96C14.438 15.96 16.418 13.98 16.418 11.54V6.42C16.418 3.98 14.438 2 11.998 2ZM13.308 8.95C13.238 9.21 13.008 9.38 12.748 9.38C12.698 9.38 12.648 9.37 12.598 9.36C12.208 9.25 11.798 9.25 11.408 9.36C11.088 9.45 10.778 9.26 10.698 8.95C10.608 8.64 10.798 8.32 11.108 8.24C11.698 8.08 12.318 8.08 12.908 8.24C13.208 8.32 13.388 8.64 13.308 8.95ZM13.838 7.01C13.7967 7.12235 13.7217 7.21918 13.6233 7.28721C13.5248 7.35524 13.4077 7.39115 13.288 7.39C13.218 7.39 13.158 7.38 13.088 7.36C12.388 7.1 11.608 7.1 10.908 7.36C10.7621 7.41174 10.6016 7.40404 10.4613 7.33857C10.321 7.27309 10.2121 7.15508 10.158 7.01C10.048 6.71 10.208 6.37 10.508 6.27C11.4705 5.92 12.5255 5.92 13.488 6.27C13.788 6.38 13.948 6.71 13.838 7.01Z" fill="#FF2426"/>
</svg>
