<svg width="24" height="24" viewBox="0 0 24 24" fill="none" xmlns="http://www.w3.org/2000/svg">
<path d="M21.719 6.27903V7.44903C21.719 8.42903 21.329 9.26903 20.639 9.75903C20.209 10.079 19.679 10.229 19.129 10.229C18.789 10.229 18.449 10.179 18.099 10.059L12.719 8.26903V17.999C12.719 20.619 10.589 22.749 7.96899 22.749C5.34899 22.749 3.21899 20.619 3.21899 17.999C3.21899 15.379 5.34899 13.249 7.96899 13.249C9.22899 13.249 10.369 13.749 11.219 14.549V3.99903C11.219 3.02903 11.619 2.18903 12.309 1.68903C12.999 1.19903 13.919 1.08903 14.839 1.38903L19.259 2.86903C20.619 3.31903 21.719 4.84903 21.719 6.27903Z" fill="#FF2426"/>
</svg>
