<svg width="24" height="24" viewBox="0 0 24 24" fill="none" xmlns="http://www.w3.org/2000/svg">
<path d="M14.15 21.9999H9.82995C8.28995 21.9999 7.14995 20.7499 7.44995 19.4199L7.96995 17.0999C8.06995 16.6399 8.47995 16.3199 8.94995 16.3199H15.04C15.51 16.3199 15.91 16.6399 16.02 17.0999L16.54 19.4099C16.86 20.8399 15.79 21.9999 14.15 21.9999ZM18.82 13.6899L17.75 14.6299C17.38 14.9499 16.91 15.1299 16.43 15.1299H7.58995C7.09995 15.1299 6.61995 14.9499 6.25995 14.6199L5.20995 13.6799C3.48995 12.2699 3.47995 11.1899 4.79995 9.52995L10.03 2.91995C10.0658 2.87148 10.1032 2.82413 10.142 2.77795C10.583 2.25795 11.27 2.70495 11.27 3.38795V6.85995C11.26 7.28995 11.6 7.62995 12.02 7.61995C12.44 7.62995 12.77 7.28995 12.78 6.85995V3.38695C12.78 2.70495 13.456 2.26695 13.909 2.77795C13.946 2.82095 13.983 2.86495 14.019 2.90995L19.229 9.52995C20.529 11.1899 20.48 12.2199 18.82 13.6899Z" fill="#FF2426"/>
</svg>
