<svg width="24" height="24" viewBox="0 0 24 24" fill="none" xmlns="http://www.w3.org/2000/svg">
<path d="M20.36 12.732C19.99 12.732 19.68 12.452 19.64 12.082C19.5218 10.9958 19.1713 9.94786 18.6123 9.0092C18.0532 8.07054 17.2987 7.26318 16.4 6.64196C16.3216 6.58768 16.2547 6.51842 16.2032 6.43818C16.1517 6.35794 16.1165 6.2683 16.0998 6.17442C16.0831 6.08054 16.0851 5.98428 16.1057 5.89119C16.1263 5.79809 16.1652 5.70999 16.22 5.63196C16.45 5.30196 16.9 5.22196 17.23 5.45196C18.2986 6.19404 19.1959 7.15627 19.8617 8.27397C20.5275 9.39167 20.9463 10.6389 21.09 11.932C21.13 12.332 20.84 12.692 20.44 12.732H20.36ZM3.73998 12.781H3.66998C3.47782 12.7608 3.3015 12.6652 3.17966 12.5153C3.05782 12.3653 3.0004 12.1732 3.01998 11.981C3.15318 10.6906 3.56125 9.44367 4.21672 8.32419C4.8722 7.20472 5.75986 6.23864 6.81998 5.49096C7.13998 5.26096 7.59998 5.34096 7.82998 5.66096C8.05998 5.99096 7.97998 6.44096 7.65998 6.67096C6.77015 7.29914 6.02508 8.11051 5.47486 9.05055C4.92463 9.99059 4.582 11.0375 4.46998 12.121C4.42998 12.501 4.10998 12.781 3.73998 12.781ZM15.99 21.1C14.76 21.69 13.44 21.99 12.06 21.99C10.62 21.99 9.24998 21.67 7.96998 21.02C7.8846 20.978 7.80845 20.9195 7.74598 20.8477C7.68351 20.776 7.63598 20.6925 7.60618 20.6022C7.57638 20.5119 7.56491 20.4165 7.57243 20.3217C7.57995 20.2268 7.60631 20.1345 7.64998 20.05C7.81998 19.69 8.25998 19.55 8.61998 19.72C9.24998 20.04 9.91998 20.26 10.6 20.39C11.52 20.57 12.46 20.58 13.38 20.42C14.06 20.3 14.73 20.09 15.35 19.79C15.72 19.62 16.16 19.76 16.32 20.13C16.5 20.49 16.36 20.93 15.99 21.1ZM12.05 2.01196C10.5 2.01196 9.22998 3.27196 9.22998 4.83196C9.22998 6.39196 10.49 7.65196 12.05 7.65196C13.61 7.65196 14.87 6.39196 14.87 4.83196C14.87 3.27196 13.61 2.01196 12.05 2.01196ZM5.04998 13.871C3.49998 13.871 2.22998 15.131 2.22998 16.691C2.22998 18.251 3.48998 19.511 5.04998 19.511C6.60998 19.511 7.86998 18.251 7.86998 16.691C7.86998 15.131 6.59998 13.871 5.04998 13.871ZM18.95 13.871C17.4 13.871 16.13 15.131 16.13 16.691C16.13 18.251 17.39 19.511 18.95 19.511C20.51 19.511 21.77 18.251 21.77 16.691C21.77 15.131 20.51 13.871 18.95 13.871Z" fill="#FF2426"/>
</svg>
