<svg width="475" height="475" viewBox="0 0 475 475" fill="none" xmlns="http://www.w3.org/2000/svg">
<path d="M237.279 474.558C368.324 474.558 474.558 368.324 474.558 237.279C474.558 106.233 368.324 0 237.279 0C106.233 0 0 106.233 0 237.279C0 368.324 106.233 474.558 237.279 474.558Z" fill="black"/>
<path d="M154.555 43.454C154.555 43.454 209.254 9.26711 310.031 36.6166L152.771 190.309L154.555 43.454ZM41.7293 158.719C41.7293 158.719 56.2335 95.8669 146.833 43.9458L144.31 263.822L41.7293 158.719ZM43.454 320.003C43.454 320.003 9.26711 265.304 36.6166 164.527L190.309 321.787L43.454 320.003ZM158.719 432.829C158.719 432.829 95.8669 418.324 43.9458 327.725L263.822 330.248L158.719 432.829ZM320.003 431.104C320.003 431.104 265.304 465.291 164.527 437.941L321.787 284.249L320.003 431.104ZM432.828 315.839C432.828 315.839 418.324 378.691 327.725 430.612L330.248 210.736L432.828 315.839ZM431.104 154.555C431.104 154.555 465.291 209.254 437.941 310.031L284.249 152.771L431.104 154.555ZM315.839 41.7293C315.839 41.7293 378.691 56.2335 430.612 146.833L210.736 144.31L315.839 41.7293Z" fill="#FF0000"/>
</svg>
