<?xml version="1.0" encoding="UTF-8" standalone="no"?>
<!-- Created with Inkscape (http://www.inkscape.org/) -->

<svg
   width="210mm"
   height="297mm"
   viewBox="0 0 210 297"
   version="1.1"
   id="svg5"
   xml:space="preserve"
   inkscape:version="1.2 (dc2aedaf03, 2022-05-15)"
   sodipodi:docname="shutter black bg.svg"
   xmlns:inkscape="http://www.inkscape.org/namespaces/inkscape"
   xmlns:sodipodi="http://sodipodi.sourceforge.net/DTD/sodipodi-0.dtd"
   xmlns="http://www.w3.org/2000/svg"
   xmlns:svg="http://www.w3.org/2000/svg"><sodipodi:namedview
     id="namedview7"
     pagecolor="#ffffff"
     bordercolor="#000000"
     borderopacity="0.25"
     inkscape:showpageshadow="2"
     inkscape:pageopacity="0"
     inkscape:pagecheckerboard="0"
     inkscape:deskcolor="#d1d1d1"
     inkscape:document-units="mm"
     showgrid="false"
     inkscape:zoom="0.5946522"
     inkscape:cx="289.2447"
     inkscape:cy="608.7592"
     inkscape:window-width="1920"
     inkscape:window-height="1057"
     inkscape:window-x="-8"
     inkscape:window-y="-8"
     inkscape:window-maximized="1"
     inkscape:current-layer="layer1" /><defs
     id="defs2"><inkscape:path-effect
       effect="copy_rotate"
       starting_point="130.4588,146.29766"
       origin="110.74576,146.29766"
       id="path-effect358"
       is_visible="true"
       lpeversion="1.2"
       lpesatellites=""
       method="normal"
       num_copies="8"
       starting_angle="0"
       rotation_angle="45"
       gap="-0.01"
       copies_to_360="true"
       mirror_copies="false"
       split_items="false"
       link_styles="false" /></defs><g
     inkscape:label="Layer 1"
     inkscape:groupmode="layer"
     id="layer1"><circle
       style="fill:#000000;stroke:none;stroke-width:1;stroke-linecap:round;stroke-linejoin:round"
       id="path459"
       cx="102.73688"
       cy="151.6369"
       r="62.780041" /><path
       style="fill:#ff0000;stroke:none;stroke-width:1;stroke-linecap:round;stroke-linejoin:round"
       d="m 88.858351,95.014829 c 0,0 14.472459,-9.045286 41.136389,-1.809057 L 88.386424,133.87023 Z M 59.006587,125.51196 c 0,0 3.837591,-16.62956 27.808623,-30.367018 l -0.667408,58.175638 z m 0.456342,42.67311 c 0,0 -9.045286,-14.47246 -1.809057,-41.13639 L 98.31833,168.657 Z m 30.497129,29.85176 c 0,0 -16.629557,-3.83759 -30.367016,-27.80862 l 58.175638,0.66741 z m 42.673112,-0.45634 c 0,0 -14.47246,9.04529 -41.13639,1.80906 l 41.60832,-40.66446 z m 29.85176,-30.49713 c 0,0 -3.83759,16.62956 -27.80862,30.36702 l 0.66741,-58.17564 z m -0.45634,-42.67311 c 0,0 9.04529,14.47246 1.80906,41.13639 L 123.17319,123.93832 Z M 131.53146,94.558487 c 0,0 16.62956,3.837591 30.36702,27.808623 l -58.17564,-0.66741 z"
       id="path302"
       inkscape:path-effect="#path-effect358"
       inkscape:original-d="m 88.858351,95.014829 c 0,0 14.472459,-9.045286 41.136389,-1.809057 L 88.386424,133.87023 Z"
       class="UnoptimicedTransforms"
       transform="translate(-8.0088832,5.3392554)" /></g></svg>
