<svg width="24" height="24" viewBox="0 0 24 24" fill="none" xmlns="http://www.w3.org/2000/svg">
<path d="M10.05 2.84806L1.25999 11.6381C1.05999 11.8381 1.05999 12.1481 1.25999 12.3481L10.05 21.1381C10.37 21.4481 10.9 21.2281 10.9 20.7881V18.1981C10.9008 18.1325 10.8879 18.0675 10.862 18.0072C10.8362 17.9469 10.798 17.8927 10.75 17.8481L5.24999 12.3481C5.04999 12.1481 5.04999 11.8381 5.24999 11.6381L10.75 6.13806C10.8433 6.04513 10.897 5.91971 10.9 5.78806V3.19806C10.8986 3.10019 10.8685 3.00488 10.8135 2.92395C10.7585 2.84301 10.6809 2.78 10.5904 2.74274C10.4999 2.70547 10.4005 2.69559 10.3044 2.71431C10.2083 2.73303 10.1199 2.77953 10.05 2.84806ZM13.75 2.84806L22.54 11.6381C22.74 11.8381 22.74 12.1481 22.54 12.3481L13.75 21.1381C13.6801 21.2066 13.5916 21.2531 13.4956 21.2718C13.3995 21.2905 13.3001 21.2806 13.2096 21.2434C13.1191 21.2061 13.0415 21.1431 12.9865 21.0622C12.9314 20.9812 12.9014 20.8859 12.9 20.7881V18.1981C12.9 18.0681 12.95 17.9381 13.05 17.8481L18.55 12.3481C18.75 12.1481 18.75 11.8381 18.55 11.6381L13.05 6.13806C12.9567 6.04513 12.9029 5.91971 12.9 5.78806V3.19806C12.9014 3.10019 12.9314 3.00488 12.9865 2.92395C13.0415 2.84301 13.1191 2.78 13.2096 2.74274C13.3001 2.70547 13.3995 2.69559 13.4956 2.71431C13.5916 2.73303 13.6801 2.77953 13.75 2.84806Z" fill="#FF2426"/>
<path d="M10.05 9.84805L8.25999 11.6381C8.05999 11.8381 8.05999 12.1481 8.25999 12.3481L10.05 14.1381C10.37 14.4481 10.9 14.2281 10.9 13.7881V10.1981C10.8986 10.1002 10.8685 10.0049 10.8135 9.92395C10.7585 9.84301 10.6809 9.78 10.5904 9.74274C10.4999 9.70547 10.4005 9.69559 10.3044 9.71431C10.2083 9.73303 10.1199 9.77953 10.05 9.84805Z" fill="#FF2426"/>
</svg>
