<svg width="24" height="24" viewBox="0 0 24 24" fill="none" xmlns="http://www.w3.org/2000/svg">
<path d="M19.512 5.85L13.572 2.42C12.602 1.86 11.402 1.86 10.422 2.42L4.492 5.85C4.01377 6.12727 3.61694 6.52552 3.34135 7.00472C3.06577 7.48392 2.92114 8.02721 2.922 8.58V15.42C2.922 16.54 3.522 17.58 4.492 18.15L10.432 21.58C11.402 22.14 12.602 22.14 13.582 21.58L19.522 18.15C20.0002 17.8727 20.3971 17.4745 20.6727 16.9953C20.9482 16.5161 21.0929 15.9728 21.092 15.42V8.58C21.0877 8.02708 20.9397 7.48477 20.6628 7.0062C20.3858 6.52764 19.9893 6.12922 19.512 5.85ZM14.252 13.4L13.212 14L12.172 14.6C10.842 15.37 9.752 14.74 9.752 13.2V10.8C9.752 9.26 10.842 8.63 12.172 9.4L13.212 10L14.252 10.6C15.582 11.37 15.582 12.63 14.252 13.4Z" fill="#FF2426"/>
</svg>
